<?xml version="1.0" encoding="utf-8"?>
<!-- Generator: Adobe Illustrator 24.1.0, SVG Export Plug-In . SVG Version: 6.00 Build 0)  -->
<svg version="1.1" id="Layer_1" xmlns="http://www.w3.org/2000/svg" xmlns:xlink="http://www.w3.org/1999/xlink" x="0px" y="0px"
	 viewBox="0 0 201.7 71.4" style="enable-background:new 0 0 201.7 71.4;" xml:space="preserve">
<style type="text/css">
	.st0{fill:#C5D02E;}
	.st1{fill:none;}
	.st2{fill:#FFFFFF;}
	.st3{fill:none;stroke:#2D2D2D;stroke-miterlimit:10;}
	.st4{fill:#00739F;}
	.st5{enable-background:new    ;}
</style>
<g transform="translate(-57.294 -261.515)">
	<g transform="translate(19 -2)">
		<g transform="translate(-113 98)">
			<g transform="translate(0 126)">
				<path class="st0" d="M181.9,45.7c12.7-1.4,24.9,5.7,29.8,17.6c2.4,5.9,2.5,12.5,0.4,18.5c-2,5.8-6.1,10.7-11.5,13.8
					c4.3-3.9,7.4-9,8.9-14.6c1.4-5.4,1-11.2-1-16.4c-2.1-5.2-5.7-9.7-10.4-12.9C193.3,48.4,187.7,46.4,181.9,45.7z"/>
				<path class="st1" d="M210.8,42"/>
				<path class="st2" d="M205,45.8c0.3-0.4,0.4-1,0.1-1.5c-0.3-0.7-1.1-0.9-1.8-0.6c-0.3,0.1-0.5,0.3-0.6,0.6
					c-0.2,0.5-0.2,1.1,0.1,1.5c-0.5-0.4-0.7-1.1-0.4-1.7c0.3-0.8,1.2-1.2,2.1-0.9c0.4,0.2,0.8,0.5,0.9,0.9
					C205.7,44.7,205.5,45.4,205,45.8z"/>
				<path class="st2" d="M218.3,45.8c0.3-0.4,0.4-1,0.1-1.5c-0.3-0.7-1.1-0.9-1.8-0.6c-0.3,0.1-0.5,0.3-0.6,0.6
					c-0.2,0.5-0.2,1.1,0.1,1.5c-0.5-0.4-0.7-1.1-0.4-1.7c0.3-0.8,1.2-1.2,2.1-0.9c0.4,0.2,0.8,0.5,0.9,0.9
					C219,44.7,218.8,45.4,218.3,45.8z"/>
				<path class="st2" d="M205.7,42.1c1.8,0.6,3.8,0.8,5.7,0.5c0.9-0.2,1.9-0.4,2.9-0.5c1-0.2,2-0.2,3-0.1h0c0.6,0,1.3,0.2,1.9,0.4
					c0.3,0.1,0.6,0.3,0.9,0.5c0.3,0.2,0.5,0.5,0.6,0.8l-0.1,0c-0.2-0.2-0.4-0.4-0.7-0.5c-0.3-0.1-0.5-0.2-0.8-0.2
					c-0.6-0.1-1.2-0.1-1.7-0.1h0h-0.1c-0.9,0-1.9,0-2.8,0.1c-1,0-1.9,0.2-2.9,0.3c-1,0.1-2,0.1-3-0.1
					C207.5,42.8,206.6,42.6,205.7,42.1L205.7,42.1z"/>
				<path class="st2" d="M206.6,44.4c1.2-0.1,2.4-0.2,3.6-0.2c0.6,0,1.2,0,1.8,0c0.6,0.1,1.2,0.1,1.8,0.2v0
					c-0.6,0.1-1.2,0.2-1.8,0.2c-0.6,0-1.2-0.1-1.8-0.1C209,44.5,207.8,44.5,206.6,44.4L206.6,44.4z"/>
				<path class="st2" d="M203,41.6c0.8-0.7,1.7-1.2,2.7-1.6c1-0.4,2.1-0.5,3.2-0.5c1.1,0.1,2.1,0.4,3.1,0.9c0.9,0.5,1.8,1.1,2.6,1.8
					c-1-0.4-1.9-0.8-2.8-1.2c-0.9-0.4-1.9-0.6-2.8-0.7c-1,0-2,0.1-2.9,0.3C204.9,40.9,204,41.2,203,41.6z"/>
				<path class="st2" d="M198.8,39.9l3.1-0.1c1-0.1,2.1,0,3.1,0.1v0c-1,0.1-2.1,0.1-3.1,0.1L198.8,39.9L198.8,39.9z"/>
				<path class="st2" d="M196.9,41l3.1-0.1c1-0.1,2.1,0,3.1,0.1v0c-1,0.1-2.1,0.1-3.1,0.1L196.9,41L196.9,41z"/>
				<path class="st2" d="M196.1,41.5l3.1-0.1c1-0.1,2.1,0,3.1,0.1v0c-1,0.1-2.1,0.1-3.1,0.1L196.1,41.5L196.1,41.5z"/>
				<path class="st2" d="M199.7,40.4l1.9-0.1c0.6-0.1,1.3,0,1.9,0.1v0c-0.6,0.1-1.3,0.1-1.9,0.1L199.7,40.4L199.7,40.4z"/>
				<path class="st2" d="M196.6,42.3l1.9-0.1c0.6-0.1,1.3,0,1.9,0.1v0c-0.6,0.1-1.3,0.1-1.9,0.1L196.6,42.3L196.6,42.3z"/>
				<path class="st2" d="M195.6,43.1l1.9-0.1c0.6-0.1,1.3,0,1.9,0.1v0c-0.6,0.1-1.3,0.1-1.9,0.1L195.6,43.1L195.6,43.1z"/>
				<path class="st3" d="M212.1,73.7"/>
				<path class="st4" d="M223.2,98.3c-5.5-2.9-12-3.3-17.8-1.1c-1.4,0.5-2.7,1.2-4,2.1c-1.4,0.9-2.9,1.6-4.4,2.3
					c-3,1.4-6.3,2.3-9.6,2.7c-3.4,0.4-6.8,0.3-10.1-0.3c-3.3-0.6-6.6-1.8-9.6-3.4c-6.1-3.3-10.9-8.5-13.8-14.8
					c-1.4-3.2-2.3-6.5-2.5-10c-0.1-0.9-0.1-1.7-0.1-2.6c0-0.7,0.1-1.7,0.1-2.5c0.2-1.7,0.5-3.4,0.9-5.1c1.9-6.6,5.9-12.4,11.4-16.5
					c2.7-2,5.7-3.6,8.9-4.6c3.2-1,6.4-1.6,9.8-1.6c1.7,0,3.2,0.1,4.8,0.2c1.6,0.1,3.2,0.2,4.7,0.3c3.2,0.2,6.3,0.4,9.5,0.7
					c-3.2,0.3-6.3,0.5-9.5,0.7c-1.6,0.1-3.2,0.2-4.7,0.3s-3.2,0.1-4.7,0.3c-6,0.6-11.7,3-16.3,6.9c-2.2,1.9-4.2,4.1-5.8,6.6
					c-4.7,7.4-5.4,16.7-1.8,24.8c2.4,5.3,6.4,9.7,11.5,12.6c5.1,3,11,4.4,16.8,4c3-0.2,5.9-0.9,8.8-1.9c1.4-0.5,2.8-1.1,4.2-1.7
					l0.2-0.1l0.1,0l0,0c0.1,0,0,0-0.2,0.2c0.1-0.1,0.1-0.1,0.2-0.1l0.1,0l0.1,0l0.1,0c0.1-0.1,0.1,0,0.1-0.1l0,0l0.1-0.1l0.3-0.1
					c0.4-0.2,0.8-0.4,1.2-0.5C209.1,92.7,217.1,93.7,223.2,98.3z"/>
				<path class="st0" d="M170.5,105.4c4.9,1.9,10.1,2.6,15.3,2.2c2.5-0.2,5-0.8,7.3-1.6c0.6-0.2,1.2-0.4,1.7-0.7s1.1-0.5,1.8-0.8
					l3.6-1.6c2.5-1.2,5.1-2.2,7.7-3c2.8-0.8,5.7-1.1,8.6-0.9c2.8,0.3,5.5,0.9,8.1,1.9c2.6,0.9,5.1,2,7.5,3.2c-2.7-0.3-5.3-0.8-8-1.1
					c-2.6-0.4-5.1-0.6-7.7-0.5c-2.5,0.1-4.9,0.5-7.2,1.4c-2.4,0.8-4.7,1.9-7.2,3l-3.7,1.6c-0.6,0.2-1.3,0.5-1.9,0.8s-1.3,0.5-2,0.7
					c-2.7,0.8-5.6,1.2-8.5,1.1c-2.8-0.1-5.6-0.6-8.3-1.6C175.1,108.5,172.6,107.1,170.5,105.4z"/>
				<path class="st0" d="M156.9,73.7l55-1.7v3.5L156.9,73.7z"/>
				<path class="st0" d="M184.6,47.3l0.3,7.8l0.2,7.8c0.1,2.6,0.2,5.2,0.1,7.8c-0.1,2.6-0.3,5.2-0.6,7.8h-0.1
					c-0.3-2.6-0.5-5.2-0.6-7.8c-0.1-2.6,0.1-5.2,0.1-7.8l0.2-7.8l0.3-7.8L184.6,47.3z"/>
				<path class="st0" d="M162.6,58.3c3.4,1.8,7,3.1,10.7,4c3.7,0.9,7.5,1.3,11.3,1c1.9-0.2,3.8-0.5,5.6-0.9c1.9-0.4,3.7-0.8,5.5-1.4
					c1.8-0.5,3.6-1.2,5.3-1.9c1.7-0.7,3.4-1.5,5-2.4l1.1,1.9c-1.8,0.9-3.6,1.7-5.4,2.3c-1.8,0.6-3.7,1.2-5.6,1.7s-3.8,0.8-5.7,1.1
					c-1.9,0.3-3.8,0.5-5.8,0.6c-3.9,0.1-7.7-0.5-11.5-1.6C169.5,61.8,166,60.2,162.6,58.3z"/>
				<path class="st0" d="M173.5,52c-1.4,2.3-2.6,4.8-3.5,7.3c-0.9,2.5-1.6,5.1-1.9,7.8c-0.3,2.7-0.5,5.4-0.7,8.1
					c-0.1,2.7-0.2,5.4-0.1,8.1c-0.6-2.7-0.9-5.4-1-8.2c-0.1-2.7,0.1-5.5,0.4-8.2c0.4-2.8,1.1-5.4,2.3-8
					C170.1,56.4,171.6,54,173.5,52z"/>
				<path class="st0" d="M194,50.5c1.5,1.8,2.7,3.7,3.6,5.9c0.9,2.1,1.6,4.3,2.1,6.6c0.5,2.3,0.8,4.6,0.8,6.9
					c-0.1,2.3-0.4,4.6-1.1,6.8l-0.1,0c0-2.3,0-4.6-0.1-6.8c0-2.2-0.2-4.5-0.5-6.7c-0.3-2.2-0.9-4.4-1.7-6.5
					C196.3,54.4,195.2,52.4,194,50.5L194,50.5z"/>
				<path class="st2" d="M205.5,82.9c0.1-2.4-2-4.9-2-4.9c-1-1.1-3.6-1.1-3.6-1.1l-2.9,0.7l-11.3,4v-3.2l-2,1.2l-1.1,0.7v2.6
					l-4.7,0.9l-5.7,0l-3.5,3.4V94c0,0,6.7,4.6,11.9,5.3c3.8,0.4,7.7,0.2,11.4-0.5c2.9-0.7,5.6-1.7,8.2-3.2c0.8-0.4,4.9-9.3,4.9-9.3
					C205.4,85.2,205.5,84.1,205.5,82.9z"/>
				<path class="st2" d="M194.3,75.8"/>
				
					<rect x="188.6" y="75.9" transform="matrix(0.136 -0.9907 0.9907 0.136 84.7786 255.8612)" class="st2" width="1" height="6.9"/>
				<path class="st2" d="M177,84.5c-0.3,0-0.5-0.2-0.5-0.5v-2.5c0-0.3,0.2-0.5,0.5-0.5s0.5,0.2,0.5,0.5V84
					C177.5,84.3,177.3,84.5,177,84.5z"/>
				<path class="st2" d="M174.9,86.9c-0.7,0-1.2-0.6-1.2-1.2v-5c0-0.7,0.6-1.2,1.2-1.2s1.2,0.6,1.2,1.2v5
					C176.1,86.3,175.6,86.9,174.9,86.9z"/>
				<path class="st2" d="M180.4,79.1l-2.4,2.1V84l2.9-0.7v-3.6l2.5,0.2l0.6-0.3L180.4,79.1z"/>
				<path class="st2" d="M178,84.3h-5.4v7.1l5.1-4.5h-2.1v-2.2h2.4"/>
				<path class="st2" d="M200.4,83.7c0,1.3-0.5,2.6-1.3,3.6c-0.8,1-1.5,2-2.1,3.1c-0.5,1.2-0.8,2.4-0.9,3.7
					c-0.2,1.3-0.3,2.5-0.4,3.8h0c0.1-1.3,0.2-2.5,0.3-3.8c0.1-1.3,0.4-2.5,0.8-3.7c0.6-1.2,1.3-2.2,2.1-3.2
					C199.7,86.1,200.2,84.9,200.4,83.7L200.4,83.7z"/>
			</g>
		</g>
		<g transform="translate(-112 224)">
			<g class="st5">
				<path class="st4" d="M236.4,83.1c0,2.4-1.2,4.3-3.6,5.7c-0.7,1.1-1.6,1.6-2.7,1.6c-1.9,0-4.1-0.9-6.5-2.6
					c-2-1.5-3.5-2.9-4.2-4.2c-0.7-1.3-1.1-2.1-1.1-2.4c0-0.4,0.3-0.9,0.9-1.4c0.5-0.5,1-0.7,1.3-0.7c0.3,0,0.4,0.2,0.4,0.6
					c0,0.2,0,0.4-0.1,0.6c0.7,1.9,2.1,3.6,4.4,5.2s4.2,2.4,6.1,2.4c1.6,0,2.4-1.1,2.4-3.3c0-1.2-0.9-3.6-2.8-7.2
					c-1.9-3.6-2.8-6.2-2.8-7.7c0-1,0.3-1.9,0.9-2.7c0.5-0.7,1.3-1.5,2.5-2.4c0.2-0.2,0.4-0.3,0.7-0.3c0.4,0,0.5,0.1,0.5,0.4
					c0,0.2-0.1,0.4-0.4,0.6c-1,1-1.5,2.1-1.5,3.5c0,1.5,0.9,4,2.8,7.5S236.4,82.2,236.4,83.1z M242.3,65.2c-0.5,1.8-1.2,3.3-2.1,4.6
					c-0.4,0.6-0.8,0.9-1.1,0.9c-0.3,0-0.9-0.3-1.8-0.8c-0.3-0.2-0.4-0.3-0.4-0.5c0-0.3,0.2-0.5,0.7-0.6c0.3-0.1,0.7-0.7,1.2-1.8
					c0.4-1,0.6-1.8,0.6-2.4c0-0.6-0.2-0.9-0.7-0.9c-0.2,0-0.4,0-0.6,0.1c-0.5,0.1-1.6,0.4-3.3,1c-0.2,0.1-0.4,0.1-0.5,0.1
					c-0.4,0-0.6-0.1-0.6-0.4c0-0.2,0.2-0.5,0.6-0.7c1.5-0.7,2.9-1.3,4.3-1.8c0.5-0.2,0.8-0.3,1-0.3c0.3,0,0.7,0.4,1.2,1.2
					c0.7,0.2,1.2,0.4,1.3,0.5c0.3,0.2,0.4,0.4,0.4,0.8C242.4,64.4,242.4,64.8,242.3,65.2z"/>
				<path class="st4" d="M259.5,66.5c-0.6,2.5-1.3,4.5-2.2,5.9c-0.4,0.7-0.7,1-1.1,1c-0.1,0-0.3,0-0.5-0.1c-1-0.3-1.5-0.7-1.5-1.1
					c0-0.2,0.1-0.3,0.4-0.4c1.1-1.7,1.8-3.8,2-6.2c-0.7-0.6-1.4-1-2-1c-1.4,0-3,1.2-4.8,3.6c-1.7,2.2-3.2,4.9-4.4,8
					c-1.3,3.2-1.9,5.9-1.9,8c0,1.2,0.4,2.2,1.1,2.8c0.5,0.4,1.1,0.7,1.8,0.7c0.4,0,0.8-0.1,1.3-0.2c1.2-0.4,2.7-1.1,4.3-2.3
					c1.6-1.1,2.9-2.2,3.9-3.3c0.3-0.4,0.5-0.8,0.6-1.3c0-0.3,0.2-0.4,0.4-0.4c0.2,0,0.3,0.1,0.4,0.4c0.5,1.2,0.7,2,0.7,2.4
					c0,0.4-0.2,0.8-0.5,1.2c-0.2,0.2-0.8,0.7-1.7,1.3c-2.8,2.1-5.1,3.4-7.1,3.9c-0.6,0.2-1.2,0.2-1.7,0.2c-1.1,0-1.9-0.4-2.4-1.1
					c-2.5-1-3.8-2.4-3.8-4.4c0-3.2,0.8-6.5,2.5-10.2c1.4-3.1,3.2-5.9,5.3-8.3c2-2.3,3.6-3.5,4.9-3.6c0.5,0,1,0.1,1.6,0.6
					c0.1,0.1,0.7,0.5,1.8,1.5c0.1-0.5,0.2-0.8,0.5-0.8c0.3,0,0.8,0.3,1.6,0.9c0.5,0.4,0.7,0.7,0.7,1.1
					C259.7,65.5,259.6,65.9,259.5,66.5z"/>
			</g>
			<g class="st5">
				<path class="st0" d="M290.2,91c-1.1,2-2.2,3.1-3.1,3.1c-0.6,0-1.3-0.3-2.1-1c-4.7-4.1-9.5-9.4-14.2-16c-0.4,1.5-1.2,3.7-2.3,6.4
					c-1,2.5-1.7,4.3-2.3,5.3c-0.3,0.6-0.6,0.9-0.9,0.9c-0.2,0-0.4-0.1-0.6-0.3c-0.8-0.6-1.3-1.2-1.3-1.6c0-0.2,0.1-0.6,0.2-0.9
					c0.3-0.8,0.7-1.8,1.1-3c0-0.3,0-0.6,0-1c0-0.2,0.1-0.4,0.3-0.4c0.2,0,0.5,0.4,1.1,1.2c1-2.1,2.1-4.9,3.3-8.3
					c-0.7-1.1-1.1-1.7-1.1-2c0-0.3,0.6-0.5,1.9-0.6c0.5-1.6,1.1-3.6,1.8-6.1c-2.1,0.8-3.7,1.5-4.8,2.1c-1.6,0.9-2.9,1.9-3.8,3.1
					c-0.4,0.5-0.6,1.1-0.6,1.7c0,0.5,0.2,1.5,0.7,3c0.1,0.4,0,0.6-0.4,0.6c-0.2,0-0.5-0.1-0.6-0.4c-0.8-1.1-1.4-2.3-1.8-3.5
					c-0.3-0.8-0.5-1.3-0.5-1.6c0-0.7,0.5-1.4,1.4-2.3c2.6-2.4,6.2-4.3,10.7-5.7c0.1-0.1,0.2-0.6,0.3-1.4c0.1-0.6,0.3-0.9,0.5-0.9
					c0.2,0,0.6,0.6,1.2,1.6c3-0.7,4.8-1,5.6-1c1.2,0.1,2.1,0.9,2.7,2.5c0.8,0.6,1.3,1,1.6,1.4c0.4,0.5,0.5,1.2,0.5,2
					c0,1.4-0.9,3.3-2.7,5.5c-1.8,2.3-3.4,3.4-4.7,3.4c-0.7,0-1.4-0.2-2-0.5c-0.5-0.3-0.9-0.6-1.4-0.9c-0.2-0.1-0.3-0.3-0.3-0.4
					c0-0.3,0.2-0.5,0.6-0.5c0.1,0,0.3,0.1,0.7,0.2c0.3,0.1,0.6,0.2,0.9,0.2c1.3,0,2.7-1,4.4-3.1c1.5-1.9,2.2-3.4,2.2-4.7
					c0-1.5-1-2.2-3.1-2.2c-1.7,0-3.7,0.4-5.8,1.2c-0.6,2.6-1.3,5.2-2.2,7.7c2.6,3.8,5.5,7.6,8.8,11.2c3.5,3.8,5.9,5.8,7.2,5.9
					c0.5,0,1.1-0.2,1.6-0.6c0.2-0.2,0.4-0.3,0.6-0.3c0.3,0,0.4,0.1,0.4,0.4C290.4,90.6,290.4,90.8,290.2,91z"/>
				<path class="st0" d="M299.6,76.6c0,1.2-0.3,2.7-0.8,4.6c-0.8,3-2,5.4-3.6,7c-0.8,0.9-1.7,1.3-2.7,1.3c-0.4,0-0.9-0.1-1.5-0.3
					c-1.2-0.1-2.2-0.5-3-1.2c-0.8-0.8-1.2-1.7-1.2-2.9c0.1-1.4,0.5-3.3,1.4-5.8c1-2.7,2-4.6,3.1-5.8c0.5-0.6,0.9-0.9,1.2-0.9
					c0.4,0,1.2,0.5,2.1,1.4c0.3-0.1,0.8-0.4,1.7-0.7c0.4-0.1,0.8-0.2,1-0.2c0.5,0,1.1,0.5,1.7,1.4C299.4,75.3,299.6,75.9,299.6,76.6
					z M297.4,77.2c0.1-0.9,0.1-1.4,0.1-1.7c0-0.5-0.2-0.8-0.5-0.8c-0.1,0-0.3,0-0.5,0.1l-3,1.2c-0.4,0.1-0.6,0.2-0.6,0.2
					c-0.1,0-0.2-0.1-0.3-0.4c-0.8,0.9-1.5,2.3-2.1,4c-0.5,1.4-0.9,2.6-1.1,3.7c-0.1,0.7-0.2,1.4-0.2,2c0,2,0.6,3,1.9,2.9
					c0.5,0,1-0.2,1.6-0.6c1.1-0.7,2.1-2.2,3.1-4.5C296.6,81.3,297.1,79.3,297.4,77.2z"/>
				<path class="st0" d="M314.6,76c-1.2,3.3-2,6.1-2.5,8.4c0.2-0.2,0.5-0.5,0.8-0.8c0.3-0.4,0.5-0.6,0.6-0.7
					c0.2-0.2,0.4-0.4,0.6-0.4c0.2,0,0.3,0.1,0.3,0.3c0,0.1-0.1,0.3-0.2,0.4c-1.2,1.8-2,3.6-2.4,5.5c-0.1,0.5-0.3,0.8-0.5,0.8
					c-0.2,0-0.6-0.2-1.2-0.6c-0.4-0.2-0.6-0.4-0.6-0.6c-0.1-0.1-0.1-0.4,0-0.9c0.5-3.3,1.2-6.1,2.1-8.2c-1.1,1.8-2.7,3.9-4.6,6.1
					c-1.7,1.9-2.9,3.2-3.7,3.7c-0.5,0.4-1,0.6-1.2,0.6c-0.2,0-0.6-0.2-1.1-0.6c-0.7-0.4-1-1-1-1.7c0-0.1,0-0.3,0-0.5
					c0.2-1.9,1.1-4.2,2.5-6.7c1.5-2.6,3.1-4.7,5-6.5c0.6-0.6,1.2-0.9,1.6-0.8c0.5,0,1.4,0.6,2.7,1.9c0.1,0.1,0.2,0.2,0.2,0.3
					c0,0.2-0.1,0.3-0.4,0.3c-0.1,0-0.2,0-0.3-0.1c-0.9-0.4-1.7-0.4-2.2,0c-1.2,0.9-2.6,2.5-4.1,4.7c-1.7,2.6-2.8,4.9-3.1,7
					c0,0.1,0,0.2,0,0.3c0,0.3,0.1,0.5,0.4,0.5c0.4,0,1-0.3,1.6-0.9c1.5-1.4,3-3.2,4.7-5.4c1.7-2.2,2.8-3.9,3.3-5
					c0.4-0.8,0.6-1.4,0.7-1.8c0.2-0.6,0.4-0.9,0.5-0.9s0.7,0.3,1.4,0.8c0.3,0.2,0.5,0.4,0.5,0.6C314.8,75.3,314.7,75.6,314.6,76z"/>
				<path class="st0" d="M340.7,58.7c0.2,0.1,0.2,0.2,0.2,0.4c0,0.2-0.2,0.4-0.5,0.4c-0.1,0-0.2,0-0.4-0.1c-0.6-0.3-1.1-0.4-1.4-0.4
					c-0.8,0-1.7,0.8-2.7,2.4c-3.6,5.8-6.2,13.6-7.8,23.4c0.3-0.3,0.8-0.8,1.4-1.5c0.3-0.4,0.6-0.6,0.7-0.6c0.4,0,0.4,0.2,0.1,0.6
					c-1.2,1.7-2.1,3.6-2.5,5.6c-0.2,0.5-0.4,0.7-0.6,0.7c-0.1,0-0.3-0.1-0.4-0.2c-0.7-0.4-1-0.7-1.1-0.8c-0.3-0.2-0.4-0.6-0.4-1
					c0-0.2,0-0.5,0.1-0.8c0.6-3,1-5.2,1.4-6.7c-1.3,1.8-2.7,3.7-4.3,5.5c-1.6,1.8-2.8,3-3.5,3.5c-0.6,0.4-1,0.6-1.2,0.6
					c-0.2,0-0.6-0.2-1.1-0.6c-0.8-0.5-1.3-1.1-1.3-1.8c0-0.1,0-0.2,0-0.4c0.3-1.9,1.1-4.2,2.6-6.7s3.1-4.7,5-6.5
					c0.6-0.6,1.2-0.9,1.6-0.8c0.5,0,1.4,0.6,2.7,1.9c0.1,0.1,0.2,0.2,0.2,0.3c0,0.2-0.1,0.3-0.4,0.3c-0.1,0-0.2,0-0.3-0.1
					c-0.9-0.4-1.7-0.4-2.2,0c-1.2,0.9-2.6,2.5-4,4.7c-1.7,2.6-2.7,4.9-3,7c-0.1,0.5,0.1,0.7,0.4,0.7c0.4,0,1-0.3,1.6-0.9
					c1.4-1.4,3-3.2,4.7-5.4c1.7-2.2,2.8-3.9,3.3-5c0.3-0.6,0.5-1.2,0.6-1.8c1.4-4.8,2.9-8.9,4.5-12.3c1.3-2.7,2.4-4.4,3.4-5.4
					c0.4-0.4,0.7-0.5,1.1-0.5c0.4,0,0.8,0.2,1.4,0.6C339.3,57.6,340,58.2,340.7,58.7z"/>
				<path class="st0" d="M338.8,84.6c0,1.6-0.8,2.6-2.6,3.2c-0.2,0.5-0.4,0.9-0.6,1.1c-0.3,0.3-0.7,0.5-1.3,0.5
					c-0.4,0-0.8,0-1.2-0.1c-0.8-0.1-1.7-0.3-2.8-0.4c-0.3-0.1-0.5-0.2-0.6-0.6c0.1-0.4,0.4-0.6,1.1-0.6c0.9-0.1,2.3-0.2,4.1-0.5
					c0.7-0.2,1.2-0.5,1.4-1.2c0.2-0.3,0.3-0.7,0.3-1.2c0-0.8-0.4-2.3-1.2-4.3c-0.8-2-1.2-3.4-1.1-4c0.1-1.6,1.6-2.8,4.5-3.4
					c0.3-0.1,0.4,0,0.4,0.3c0,0.2-0.1,0.3-0.3,0.4c-1.4,0.6-2.1,1.4-2.1,2.3c0,0.4,0.1,0.8,0.2,1.3c0.1,0.5,0.5,1.8,1.2,3.8
					C338.5,82.7,338.7,83.8,338.8,84.6z M341.9,73.4c0,0.6-0.2,1.5-0.5,2.8c-0.1,0.4-0.2,0.7-0.4,0.9c-0.1,0.1-0.3,0.2-0.7,0.3
					c-0.5,0.2-0.8,0.3-0.9,0.3c-0.2,0-0.3-0.1-0.3-0.4c0-0.1,0-0.3,0.1-0.6c0.3-1.3,0.4-2.2,0.4-2.7c-0.1-0.5,0.1-0.8,0.4-0.9
					c0.6-0.3,1-0.5,1.2-0.5C341.7,72.5,341.9,72.8,341.9,73.4z"/>
			</g>
		</g>
	</g>
</g>
</svg>
